<svg width="20" height="21" viewBox="0 0 20 21" fill="none" xmlns="http://www.w3.org/2000/svg">
<g id="flat-color-icons:google">
<path id="Vector" d="M18.1711 8.86788H17.4998V8.83329H9.99984V12.1666H14.7094C14.0223 14.107 12.1761 15.5 9.99984 15.5C7.23859 15.5 4.99984 13.2612 4.99984 10.5C4.99984 7.73871 7.23859 5.49996 9.99984 5.49996C11.2744 5.49996 12.434 5.98079 13.3169 6.76621L15.674 4.40913C14.1857 3.02204 12.1948 2.16663 9.99984 2.16663C5.39775 2.16663 1.6665 5.89788 1.6665 10.5C1.6665 15.102 5.39775 18.8333 9.99984 18.8333C14.6019 18.8333 18.3332 15.102 18.3332 10.5C18.3332 9.94121 18.2757 9.39579 18.1711 8.86788Z" fill="#FFC107"/>
<path id="Vector_2" d="M2.62744 6.62121L5.36536 8.62913C6.10619 6.79496 7.90036 5.49996 9.99994 5.49996C11.2745 5.49996 12.4341 5.98079 13.317 6.76621L15.6741 4.40913C14.1858 3.02204 12.1949 2.16663 9.99994 2.16663C6.79911 2.16663 4.02327 3.97371 2.62744 6.62121Z" fill="#FF3D00"/>
<path id="Vector_3" d="M9.9998 18.8334C12.1523 18.8334 14.1081 18.0096 15.5869 16.67L13.0077 14.4875C12.1429 15.1452 11.0862 15.5009 9.9998 15.5C7.8323 15.5 5.99189 14.118 5.29855 12.1892L2.58105 14.283C3.96022 16.9817 6.76105 18.8334 9.9998 18.8334Z" fill="#4CAF50"/>
<path id="Vector_4" d="M18.1712 8.86796H17.5V8.83337H10V12.1667H14.7096C14.3809 13.0902 13.7889 13.8972 13.0067 14.488L13.0079 14.4871L15.5871 16.6696C15.4046 16.8355 18.3333 14.6667 18.3333 10.5C18.3333 9.94129 18.2758 9.39587 18.1712 8.86796Z" fill="#1976D2"/>
</g>
</svg>
