<svg width="36" height="36" viewBox="0 0 36 36" fill="none" xmlns="http://www.w3.org/2000/svg">
<rect x="0.5" y="0.5" width="35" height="35" rx="7.5" fill="white"/>
<rect x="0.5" y="0.5" width="35" height="35" rx="7.5" stroke="#26498D"/>
<path d="M10.5 26.75V15.5C10.5 13.5109 11.2902 11.6032 12.6967 10.1967C14.1032 8.79018 16.0109 8 18 8C19.9891 8 21.8968 8.79018 23.3033 10.1967C24.7098 11.6032 25.5 13.5109 25.5 15.5V26.75M10.5 26.75H25.5M10.5 26.75H8M25.5 26.75H28M16.75 30.5H19.25" stroke="#26498D" stroke-linecap="round" stroke-linejoin="round"/>
<path d="M18 8C18.6904 8 19.25 7.44036 19.25 6.75C19.25 6.05964 18.6904 5.5 18 5.5C17.3096 5.5 16.75 6.05964 16.75 6.75C16.75 7.44036 17.3096 8 18 8Z" stroke="#26498D"/>
</svg>
