<svg width="36" height="36" viewBox="0 0 36 36" fill="none" xmlns="http://www.w3.org/2000/svg">
<rect x="0.5" y="0.5" width="35" height="35" rx="7.5" fill="white"/>
<rect x="0.5" y="0.5" width="35" height="35" rx="7.5" stroke="#26498D"/>
<path d="M18.0023 20.9494C19.7013 20.9494 21.0787 19.6298 21.0787 18.0021C21.0787 16.3743 19.7013 15.0547 18.0023 15.0547C16.3032 15.0547 14.9258 16.3743 14.9258 18.0021C14.9258 19.6298 16.3032 20.9494 18.0023 20.9494Z" stroke="#26498D"/>
<path d="M7.84765 8.98293L8.23221 8.34335C8.08123 8.25972 7.90506 8.22773 7.73261 8.25263C7.56016 8.27754 7.40166 8.35785 7.28312 8.4804L7.84765 8.98293ZM4.77272 14.0878L4.03744 13.8697C3.98627 14.0291 3.99309 14.2005 4.0568 14.3558C4.12051 14.5111 4.23733 14.641 4.38816 14.7244L4.77272 14.0878ZM4.76964 21.9145L4.38508 21.2764C4.23393 21.3599 4.11689 21.4901 4.05316 21.6456C3.98943 21.8012 3.9828 21.9729 4.03437 22.1326L4.76964 21.9145ZM7.84611 27.0193L7.28158 27.5204C7.40012 27.6429 7.55862 27.7233 7.73107 27.7482C7.90352 27.7731 8.07969 27.7411 8.23067 27.6575L7.84611 27.0193ZM14.922 30.932H14.1529C14.1528 31.0993 14.2121 31.2617 14.3212 31.3924C14.4302 31.5231 14.5824 31.6143 14.7528 31.6511L14.922 30.932ZM21.0765 30.9349L21.2472 31.6541C21.4173 31.617 21.5692 31.5256 21.6779 31.3949C21.7866 31.2642 21.8458 31.102 21.8456 30.9349H21.0765ZM28.1539 27.0208L27.7693 27.6589C27.9203 27.7426 28.0965 27.7745 28.2689 27.7496C28.4414 27.7247 28.5999 27.6444 28.7184 27.5219L28.1539 27.0208ZM31.2273 21.913L31.9626 22.1311C32.0137 21.9717 32.0069 21.8003 31.9432 21.645C31.8795 21.4897 31.7627 21.3598 31.6118 21.2764L31.2273 21.913ZM31.2304 14.0863L31.6149 14.7244C31.7661 14.6409 31.8831 14.5107 31.9468 14.3552C32.0106 14.1996 32.0172 14.0279 31.9656 13.8682L31.2304 14.0863ZM28.1539 8.97998L28.7184 8.47893C28.5999 8.35638 28.4414 8.27606 28.2689 8.25116C28.0965 8.22626 27.9203 8.25824 27.7693 8.34187L28.1539 8.97998ZM21.078 5.07029H21.8471C21.8469 4.90343 21.7877 4.74157 21.679 4.6112C21.5702 4.48082 21.4186 4.38965 21.2488 4.35261L21.078 5.07029ZM14.9251 5.06735L14.7543 4.34819C14.584 4.385 14.4317 4.47626 14.3227 4.60697C14.2137 4.73767 14.1543 4.90003 14.1544 5.06735H14.9251ZM5.508 14.3059C6.08513 12.5096 7.07724 10.861 8.41064 9.4825L7.28312 8.4804C5.79235 10.021 4.68299 11.862 4.03744 13.8697L5.508 14.3059ZM6.67705 24.265C6.1882 23.4538 5.79556 22.5927 5.50646 21.6979L4.0359 22.1341C4.35996 23.1338 4.79954 24.0957 5.34648 25.0019L6.67705 24.265ZM8.41218 26.5198C7.74847 25.8324 7.16546 25.0761 6.67705 24.265L5.34648 25.0019C5.892 25.9084 6.54158 26.7536 7.28312 27.5219L8.41218 26.5198ZM20.9073 30.2187C18.9945 30.6359 17.0081 30.6349 15.0958 30.2158L14.7543 31.6511C16.8913 32.1197 19.1111 32.1212 21.2488 31.6556L20.9073 30.2187ZM30.4951 21.6979C29.9179 23.4941 28.9258 25.1427 27.5924 26.5212L28.72 27.5233C30.2107 25.9827 31.32 24.1402 31.9656 22.1326L30.4951 21.6979ZM29.326 11.7387C29.8244 12.5684 30.2136 13.429 30.4982 14.3059L31.9672 13.8697C31.6432 12.8699 31.2037 11.908 30.6566 11.0019L29.326 11.7387ZM27.5909 9.48398C28.2551 10.171 28.8382 10.9273 29.326 11.7387L30.6566 11.0019C30.1111 10.0953 29.4615 9.25009 28.72 8.48187L27.5909 9.48398ZM15.0958 5.78503C17.0086 5.36784 18.9949 5.36884 20.9073 5.78798L21.2488 4.35261C19.1118 3.88396 16.892 3.88245 14.7543 4.34819L15.0958 5.78503ZM15.6942 7.79219V5.06587H14.156V7.79219H15.6942ZM10.6949 9.70503L8.23221 8.34335L7.46309 9.61808L9.92427 10.9812L10.6949 9.70503ZM6.84934 19.9147L4.38508 21.2764L5.15574 22.5526L7.61691 21.1909L6.84934 19.9147ZM7.61845 14.8099L5.15728 13.4497L4.38816 14.7259L6.84934 16.0861L7.61845 14.8099ZM15.6942 30.932V28.2101H14.156V30.932H15.6942ZM9.92581 25.0196L7.46309 26.3812L8.23221 27.6575L10.6934 26.2958L9.92581 25.0196ZM28.54 26.3827L26.0773 25.0196L25.3082 26.2972L27.7693 27.6589L28.54 26.3827ZM21.8471 30.9364V28.2101H20.3089V30.9364H21.8471ZM30.8473 13.4482L28.3846 14.8099L29.1537 16.0861L31.6149 14.7244L30.8473 13.4482ZM31.6134 21.2749L29.1537 19.9177L28.3846 21.1939L30.8458 22.5541L31.6134 21.2749ZM21.8471 7.79219V5.07029H20.3089V7.79219H21.8471ZM27.7709 8.34335L25.3082 9.7065L26.0773 10.9827L28.54 9.61956L27.7709 8.34335ZM20.3089 7.79219C20.3089 10.6276 23.513 12.4004 26.0773 10.9827L25.3082 9.7065C24.9573 9.90058 24.5593 10.0027 24.1541 10.0027C23.749 10.0026 23.351 9.90033 23.0002 9.70615C22.6494 9.51197 22.3581 9.23272 22.1557 8.89648C21.9533 8.56024 21.8469 8.18034 21.8471 7.79219H20.3089ZM28.3846 14.8113C25.8204 16.229 25.8204 19.7747 28.3846 21.1924L29.1537 19.9162C28.803 19.7222 28.5118 19.4431 28.3093 19.1071C28.1068 18.7711 28.0002 18.3899 28.0002 18.0019C28.0002 17.6139 28.1068 17.2327 28.3093 16.8967C28.5118 16.5606 28.803 16.2816 29.1537 16.0876L28.3846 14.8113ZM26.0773 25.021C23.513 23.6033 20.3089 25.3732 20.3089 28.2101H21.8471C21.8471 27.8221 21.9538 27.4423 22.1563 27.1063C22.3588 26.7703 22.6501 26.4912 23.0008 26.2972C23.3516 26.1032 23.7495 26.0011 24.1545 26.0011C24.5595 26.0011 24.9574 26.1032 25.3082 26.2972L26.0773 25.021ZM15.6942 28.2101C15.6942 25.3747 12.49 23.6033 9.92581 25.021L10.6949 26.2972C11.0458 26.1032 11.4438 26.001 11.849 26.0011C12.2541 26.0011 12.6521 26.1034 13.0029 26.2976C13.3537 26.4918 13.645 26.771 13.8474 27.1073C14.0498 27.4435 14.1562 27.8249 14.156 28.213L15.6942 28.2101ZM7.61845 21.1924C10.1827 19.7747 10.1827 16.229 7.61845 14.8113L6.84934 16.0876C8.38757 16.9379 8.38757 19.0629 6.84934 19.9147L7.61845 21.1924ZM14.156 7.79219C14.1557 8.18009 14.0489 8.56109 13.8462 8.89692C13.6436 9.23275 13.3523 9.51158 13.0016 9.70541C12.6509 9.89925 12.2531 10.0013 11.8482 10.0012C11.4433 10.0011 11.0456 9.89898 10.6949 9.70503L9.92581 10.9827C12.49 12.4004 15.6942 10.629 15.6942 7.79219H14.156Z" fill="#26498D"/>
</svg>
